<svg width="36" height="24" viewBox="0 0 36 24" fill="none" xmlns="http://www.w3.org/2000/svg">
<path fill-rule="evenodd" clip-rule="evenodd" d="M0.5 12C0.5 11.6685 0.631696 11.3505 0.866117 11.1161C1.10054 10.8817 1.41848 10.75 1.75 10.75L31.2325 10.75L23.365 2.88501C23.1303 2.65029 22.9984 2.33195 22.9984 2.00001C22.9984 1.66807 23.1303 1.34972 23.365 1.11501C23.5997 0.880289 23.9181 0.748429 24.25 0.748429C24.5819 0.748429 24.9003 0.880289 25.135 1.11501L35.135 11.115C35.2514 11.2311 35.3438 11.3691 35.4068 11.5209C35.4698 11.6728 35.5022 11.8356 35.5022 12C35.5022 12.1644 35.4698 12.3272 35.4068 12.4791C35.3438 12.631 35.2514 12.7689 35.135 12.885L25.135 22.885C24.9003 23.1197 24.5819 23.2516 24.25 23.2516C23.9181 23.2516 23.5997 23.1197 23.365 22.885C23.1303 22.6503 22.9984 22.3319 22.9984 22C22.9984 21.6681 23.1303 21.3497 23.365 21.115L31.2325 13.25L1.75 13.25C1.41848 13.25 1.10054 13.1183 0.866117 12.8839C0.631696 12.6495 0.5 12.3315 0.5 12Z" fill="#FFF38A"/>
</svg>
